<svg width="193" height="190" viewBox="0 0 193 190" fill="none" xmlns="http://www.w3.org/2000/svg">
<path d="M98.1974 22.7L105.607 4.49V23H108.307V0.8L104.437 0.8L97.0274 18.95L89.6774 0.8L85.7474 0.8V23H88.5074V4.64L95.8574 22.7H98.1974Z" fill="black"/>
<path d="M142.537 12.5989L139.854 11.1908L122.312 27.0558L124.835 28.3802L130.071 23.5048L138.013 27.6734C137.698 30.0826 137.355 32.4778 137.002 34.7655L139.499 36.076L142.537 12.5989ZM139.842 14.505C139.317 18.0239 138.828 21.7313 138.327 25.3983L131.765 21.9547C134.498 19.4588 137.259 16.9099 139.842 14.505Z" fill="black"/>
<path d="M169.45 52.3792L162.565 42.4046L170.984 36.5933L169.416 34.3219L151.146 46.9329L152.714 49.2044L160.689 43.6998L167.574 53.6744L159.599 59.1789L161.167 61.4504L179.437 48.8393L177.869 46.5679L169.45 52.3792Z" fill="black"/>
<path d="M167.475 79.4241L169.276 94.2551L171.54 93.9803L170.072 81.8891L177.993 80.9272L179.187 90.7551L181.48 90.4766L180.287 80.6488L187.583 79.7629L189.051 91.8541L191.314 91.5792L189.514 76.7482L167.475 79.4241Z" fill="black"/>
<path d="M166.977 113.101L165.988 115.71L174.992 119.125L173.354 123.444C173.226 123.781 173.088 124.146 172.967 124.549C171.126 125.68 167.806 125.383 165.397 125.304L162.392 125.191L161.275 128.136C162.259 127.996 163.831 128.079 165.13 128.122C169.68 128.308 171.174 128.008 172.431 126.977C172.247 128.223 172.292 129.459 172.646 130.556C173.136 132.057 174.328 133.311 176.264 134.045C178.059 134.726 179.871 134.515 181.169 133.884L181.141 133.874C182.673 132.882 183.788 131.38 184.788 128.743L187.734 120.973L166.977 113.101ZM177.124 119.933L184.641 122.784L182.684 127.945C181.716 130.498 180.129 132.399 177.015 131.218C175.641 130.697 174.92 129.974 174.661 128.881C174.405 127.693 174.698 126.329 175.379 124.533L177.124 119.933Z" fill="black"/>
<path d="M143.953 149.05C138.788 153.625 140.063 158.548 143.047 161.916L151.98 171.999L154.046 170.168L145.113 160.086C141.692 156.224 143.222 153.065 145.624 150.936C148.027 148.807 151.325 147.689 154.747 151.552L163.679 161.634L165.722 159.824L156.79 149.741C153.806 146.373 149.095 144.494 143.953 149.05Z" fill="black"/>
<path d="M120.346 171.827L119.145 173.977L114.675 170.506C112.759 169 110.843 167.495 109.057 166.143L105.62 166.99C109.684 170.191 113.719 173.275 117.769 176.417L110.962 188.538L114.195 187.741L121.178 175.329L121.156 175.366L120.346 171.827ZM121.058 163.185L118.407 163.838L123.72 185.393L126.371 184.74L121.058 163.185Z" fill="black"/>
<path d="M70.7497 175.053L82.5175 177.953L80.0693 187.886L82.7491 188.547L88.0619 166.992L85.3821 166.331L83.0631 175.74L71.2953 172.839L73.6143 163.431L70.9345 162.77L65.6217 184.325L68.3015 184.986L70.7497 175.053Z" fill="black"/>
<path d="M32.7469 164.07L35.0149 166.08L55.8441 154.874L53.7108 152.984L47.4608 156.465L40.7466 150.516C41.6298 148.253 42.5354 146.009 43.4263 143.872L41.3155 142.002L32.7469 164.07ZM35.8193 162.864C37.1716 159.573 38.5336 156.091 39.8981 152.65L45.4446 157.564C42.1938 159.333 38.9032 161.148 35.8193 162.864Z" fill="black"/>
<path d="M22.1276 123.467C24.0912 122.723 25.5856 122.348 26.5344 122.566C27.4378 122.833 28.0094 123.579 28.3711 124.533C28.4668 124.785 28.5452 125.076 28.6235 125.367L31.0117 124.558L30.9797 124.474C30.8801 124.127 30.7912 123.807 30.6635 123.471C29.972 121.647 28.501 119.799 26.4843 119.473C25.0866 119.425 22.9616 120.167 21.0261 120.901L7.8143 125.912L8.80364 128.521L22.1276 123.467Z" fill="black"/>
<path d="M25.2289 84.9356L8.04487 75.3846L26.4199 77.6158L26.7454 74.9355L4.70722 72.2595L4.24075 76.1013L21.3652 85.645L2.46162 90.7537L1.98792 94.6551L24.0261 97.331L24.3587 94.5911L6.1326 92.378L24.9469 87.2585L25.2289 84.9356Z" fill="black"/>
<path d="M20.5459 39.7018L18.8247 42.1954L32.4595 61.522L34.0785 59.1765L29.8697 53.3916L34.9652 46.0094C37.3188 46.6133 39.6554 47.2419 41.8837 47.8687L43.4857 45.5479L20.5459 39.7018ZM22.1134 42.6064C25.5433 43.5522 29.1648 44.4844 32.7445 45.4244L28.5351 51.5227C26.3869 48.5088 24.1893 45.4609 22.1134 42.6064Z" fill="black"/>
<path d="M57.9442 34.099L70.8276 27.3373L69.7402 25.2653L59.3006 30.7444L50.0712 13.1592L47.6274 14.4418L57.9442 34.099Z" fill="black"/>
</svg>
